<?xml version="1.0" encoding="UTF-8" standalone="no"?>
<svg
   id="logo"
   width="64"
   height="64"
   version="1.1"
   viewBox="0 0 16.933 16.933"
   sodipodi:docname="logo.svg"
   xml:space="preserve"
   inkscape:export-filename="logo.png"
   inkscape:export-xdpi="96"
   inkscape:export-ydpi="96"
   inkscape:version="1.2.1 (9c6d41e410, 2022-07-14)"
   xmlns:inkscape="http://www.inkscape.org/namespaces/inkscape"
   xmlns:sodipodi="http://sodipodi.sourceforge.net/DTD/sodipodi-0.dtd"
   xmlns="http://www.w3.org/2000/svg"
   xmlns:svg="http://www.w3.org/2000/svg"
   xmlns:rdf="http://www.w3.org/1999/02/22-rdf-syntax-ns#"
   xmlns:cc="http://creativecommons.org/ns#"
   xmlns:dc="http://purl.org/dc/elements/1.1/"><defs
     id="defs65"><inkscape:path-effect
       effect="simplify"
       id="path-effect1493"
       is_visible="true"
       lpeversion="1"
       steps="1"
       threshold="0.000408163"
       smooth_angles="360"
       helper_size="0"
       simplify_individual_paths="false"
       simplify_just_coalesce="false" /><inkscape:path-effect
       effect="simplify"
       id="path-effect1489"
       is_visible="true"
       lpeversion="1"
       steps="1"
       threshold="0.000408163"
       smooth_angles="360"
       helper_size="0"
       simplify_individual_paths="false"
       simplify_just_coalesce="false" /><inkscape:path-effect
       effect="powerstroke"
       id="path-effect522"
       is_visible="true"
       lpeversion="1"
       offset_points="1.78417,0.1801383"
       not_jump="true"
       sort_points="true"
       interpolator_type="CentripetalCatmullRom"
       interpolator_beta="0.75"
       start_linecap_type="square"
       linejoin_type="spiro"
       miter_limit="4"
       scale_width="1"
       end_linecap_type="square" /><inkscape:path-effect
       effect="simplify"
       id="path-effect520"
       is_visible="true"
       lpeversion="1"
       steps="1"
       threshold="0.0032025118"
       smooth_angles="0"
       helper_size="0"
       simplify_individual_paths="false"
       simplify_just_coalesce="false"
       step="1" /><inkscape:path-effect
       effect="skeletal"
       id="path-effect421"
       is_visible="true"
       lpeversion="1"
       pattern="M 0,4.9920401 C 0,2.236434 2.236434,0 4.9920401,0 c 2.7556061,0 4.9920401,2.236434 4.9920401,4.9920401 0,2.7556061 -2.236434,4.9920401 -4.9920401,4.9920401 C 2.236434,9.9840802 0,7.7476462 0,4.9920401 Z"
       copytype="single_stretched"
       prop_scale="1"
       scale_y_rel="false"
       spacing="0"
       normal_offset="0"
       tang_offset="0"
       prop_units="false"
       vertical_pattern="false"
       hide_knot="false"
       fuse_tolerance="0" /><inkscape:path-effect
       effect="powerstroke"
       id="path-effect352"
       is_visible="true"
       lpeversion="1"
       offset_points="1.6699728,0.1801383"
       not_jump="true"
       sort_points="true"
       interpolator_type="CentripetalCatmullRom"
       interpolator_beta="0.75"
       start_linecap_type="square"
       linejoin_type="spiro"
       miter_limit="4"
       scale_width="1"
       end_linecap_type="square" /><inkscape:path-effect
       effect="simplify"
       id="path-effect350"
       is_visible="true"
       lpeversion="1"
       steps="1"
       threshold="0.0032025118"
       smooth_angles="0"
       helper_size="0"
       simplify_individual_paths="false"
       simplify_just_coalesce="false"
       step="1" /></defs><sodipodi:namedview
     id="namedview63"
     pagecolor="#ffffff"
     bordercolor="#000000"
     borderopacity="0.25"
     inkscape:showpageshadow="2"
     inkscape:pageopacity="0.0"
     inkscape:pagecheckerboard="0"
     inkscape:deskcolor="#d1d1d1"
     showgrid="false"
     inkscape:zoom="5.759184"
     inkscape:cx="12.414953"
     inkscape:cy="29.518071"
     inkscape:window-width="1366"
     inkscape:window-height="699"
     inkscape:window-x="0"
     inkscape:window-y="0"
     inkscape:window-maximized="1"
     inkscape:current-layer="logo" /><metadata
     id="metadata2"><rdf:RDF><cc:Work
         rdf:about=""><dc:format>image/svg+xml</dc:format><dc:type
           rdf:resource="http://purl.org/dc/dcmitype/StillImage" /><dc:title /></cc:Work></rdf:RDF></metadata><g
     transform="translate(-10.292 -6.4467)"
     display="none"
     fill="#684338"
     id="g8"><path
       transform="scale(.26458)"
       d="m336.37 57.961c-32.337-1.75e-4 -58.551 20.933-58.551 46.756-1e-3 25.823 26.213 46.758 58.551 46.758 32.337 1.7e-4 58.552-20.934 58.551-46.758 0-4.1532-0.10627-12.819-2.0606-12.295-2.4325 0.45751-4.9948 0.69114-7.5781 0.69141-12.38 4.5e-5 -22.416-5.251-22.416-11.729 2e-5 -4.6854 7.0552-4.274 13.555-10.773 7.1439-7.1439-25.173-12.65-40.051-12.65zm-20.998 11.193c1.1119-0.0012 2.2216 0.07178 3.3242 0.21875 16.626 2.2224 28.324 20.452 26.129 40.717-2.1946 20.265-17.452 34.892-34.078 32.67-16.626-2.2223-28.325-20.453-26.129-40.719 2.0272-18.707 15.276-32.875 30.754-32.887z"
       style="paint-order:markers fill stroke"
       id="path4" /><path
       transform="matrix(-.55675 .83068 -.99938 .035244 -24.308 -23.317)"
       d="m72.49-90.929c-1e-6 2.3455-3.838 7.9289-7.8579 7.9289-2.1718 0-2.0217-2.308-3.1999-4.1764-1.0026-1.5899-3.4995-2.6742-3.4995-3.7525-1e-6 -2.3455 3.2588-4.2469 7.2787-4.2469 4.0199 0 7.2787 1.9014 7.2787 4.2469z"
       stroke-width="0"
       style="paint-order:markers fill stroke"
       id="path6" /></g><g
     id="g3142"
     transform="translate(0,0.36194195)"><g
       id="g1332"
       transform="translate(3.0461041e-5,-2.0749542)"><g
         transform="translate(-34.6,-29.764)"
         id="g60"><g
           transform="translate(-3.8513e-6,1.6565)"
           id="g58"><g
             transform="translate(0,-1.6565)"
             id="g56"><g
               transform="matrix(0.1383,0,0,0.1383,29.742,29.695)"
               stroke-width="7.2309"
               id="g44"><g
                 id="g30"><g
                   id="g24"><path
                     d="m 98.607,67.778 c -0.26842,2.2305 -5.9248,7.5019 -8.463,7.1965 -2.5383,-0.30546 -6.7778,-6.8435 -6.5094,-9.074 0.26842,-2.2305 5.5303,-3.5246 8.0686,-3.2191 2.5383,0.30546 7.1723,2.8662 6.9039,5.0966 z"
                     id="path10" /><circle
                     transform="rotate(6.8621)"
                     cx="103.62"
                     cy="69.821999"
                     r="0.94344002"
                     style="paint-order:markers fill stroke"
                     id="circle12" /><circle
                     transform="rotate(6.8621)"
                     cx="110.97"
                     cy="59.455002"
                     r="0.94344002"
                     style="paint-order:markers fill stroke"
                     id="circle14" /><circle
                     transform="rotate(6.8621)"
                     cx="113.42"
                     cy="68.699997"
                     r="0.94344002"
                     style="paint-order:markers fill stroke"
                     id="circle16" /><circle
                     transform="rotate(6.8621)"
                     cx="91.964996"
                     cy="65.737"
                     r="0.92624003"
                     style="paint-order:markers fill stroke"
                     id="circle18" /><circle
                     transform="rotate(6.8621)"
                     cx="84.413002"
                     cy="60.097"
                     r="0.92624003"
                     style="paint-order:markers fill stroke"
                     id="circle20" /><circle
                     transform="rotate(6.8621)"
                     cx="84.928001"
                     cy="70.742996"
                     r="0.92624003"
                     style="paint-order:markers fill stroke"
                     id="circle22" /></g><path
                   d="m 60.365,31.119 c -0.03353,-0.18871 -4.0209,0.3521 -8.9525,4.0802 -2.7671,2.0761 -5.7527,4.8735 -8.689,8.6062 -2.1657,2.7446 -4.4069,6.085 -5.805,9.9376 -0.51822,1.421 -0.92313,2.9754 -0.98675,4.6071 -0.05788,1.3041 0.16508,2.7045 0.86713,3.9512 0.08233,0.13964 0.16907,0.27609 0.26,0.40928 1.3075,1.915 3.4238,3.0786 5.5762,3.4021 3.0368,0.4471 6.0017,-0.41501 8.4104,-1.6703 7.1912,-3.7482 11.054,-10.607 12.97,-14.898 2.0407,-4.5707 2.6074,-7.4379 2.4466,-7.4895 -0.16078,-0.05158 -1.0465,2.7166 -3.2786,7.0922 -2.09,4.0968 -6.0275,10.66 -12.802,13.984 -2.2539,1.1057 -4.9315,1.8832 -7.5071,1.4525 -1.7657,-0.28928 -3.5272,-1.2414 -4.5244,-2.7435 -0.0694,-0.10453 -0.13488,-0.21145 -0.19624,-0.32068 -0.53116,-0.88927 -0.68979,-2.0128 -0.66576,-3.1161 0.03961,-1.4026 0.4057,-2.8061 0.87288,-4.1451 1.2743,-3.6327 3.3983,-6.8833 5.4525,-9.6122 2.7964,-3.7031 5.6057,-6.506 8.2207,-8.6545 4.71,-3.8396 8.3644,-4.6834 8.3309,-4.8722 z"
                   id="path26" /><path
                   d="m 136.01,36.031 c -0.1321,0.135 2.7179,3.0095 6.8918,8.2491 v 2e-6 c 2.2607,2.839 5.1336,6.6628 7.6263,11.028 1.8862,3.3156 3.8371,7.283 4.4858,11.524 0.25913,1.6917 0.31013,3.4598 -0.0478,5.1516 -0.2937,1.4062 -0.88404,2.7753 -1.7454,3.9669 -0.10994,0.15209 -0.22394,0.3008 -0.34187,0.44588 -1.0536,1.304 -2.2777,2.4142 -3.6887,3.0693 -1.2045,0.56858 -2.553,0.7928 -3.8364,0.66436 -3.0933,-0.26683 -5.8103,-2.4151 -7.8492,-4.5662 -3.0914,-3.3095 -5.0532,-7.2698 -6.3213,-10.627 v -2e-6 c -3.0997,-8.2309 -2.631,-14.007 -2.8523,-14.012 -0.22133,-0.0054 -1.1266,5.8309 1.7909,14.393 v 2e-6 c 1.1868,3.4942 3.1251,7.6387 6.338,11.204 2.0905,2.3523 5.0662,4.6976 8.7372,5.1282 1.5608,0.16473 3.1835,-0.09477 4.6517,-0.7782 1.6846,-0.79494 3.0992,-2.0472 4.2478,-3.4936 0.13627,-0.16806 0.26788,-0.34007 0.3947,-0.51578 0.9937,-1.3769 1.6675,-2.9458 1.9992,-4.5636 0.39163,-1.9322 0.33334,-3.8834 0.0322,-5.7074 -0.75126,-4.5437 -2.8142,-8.634 -4.813,-11.973 -2.6392,-4.4256 -5.6396,-8.1944 -8.0426,-10.973 v -2e-6 c -4.4172,-5.1101 -7.5252,-7.7487 -7.6573,-7.6137 z"
                   id="path28" /></g><g
                 stroke-width="7.2309"
                 id="g34"><g
                   transform="rotate(5.1295,120.58,22.083)"
                   stroke-width="7.2309"
                   id="g32" /></g><g
                 transform="matrix(-1,0,0,1,191.62,0)"
                 stroke-width="7.2309"
                 id="g38"><g
                   transform="rotate(5.1295,120.58,22.083)"
                   stroke-width="7.2309"
                   id="g36" /></g><path
                 transform="translate(-1.2292e-6)"
                 d="m 90.268,74.395 c -0.38912,-0.10426 -1.6812,4.4532 -3.8938,10.517 -0.22858,0.68081 -0.65824,1.3339 -1.2459,1.8045 -0.56552,0.46451 -1.3005,0.77805 -2.1103,0.98441 -0.0642,0.01625 -0.12872,0.03172 -0.19354,0.04641 -1.8576,0.42106 -3.8327,0.17383 -5.5421,-0.2673 -2.1609,-0.59441 -3.7475,-1.4013 -4.867,-2.5369 -0.5963,-0.60658 -0.96176,-1.1977 -1.1294,-1.7844 v -10e-7 c -0.39642,-1.2776 0.07999,-2.2227 -0.07706,-2.3046 -0.15705,-0.08186 -1.055,0.67576 -0.87358,2.4827 v 10e-7 c 0.0916,0.79364 0.43976,1.6645 1.102,2.4748 1.191,1.4652 3.0067,2.6288 5.3642,3.3365 1.8866,0.59575 4.1337,0.90666 6.4233,0.41135 0.07946,-0.01719 0.15872,-0.03531 0.23774,-0.05435 1.0242,-0.24561 2.0025,-0.69598 2.8279,-1.3756 0.86525,-0.72464 1.4552,-1.6768 1.747,-2.6753 2.0184,-6.3067 2.6196,-10.954 2.2304,-11.059 z"
                 id="path40" /><path
                 transform="translate(24.308,23.317)"
                 d="m 79.149,64.172 c 0.06919,0.0104 0.37961,0.87512 -0.66821,2.0412 -0.50377,0.57002 -1.2053,1.0975 -2.14,1.5456 h -10e-7 c -1.5904,0.77145 -3.646,1.3002 -6.0737,1.2786 -1.7761,0.01516 -3.9538,-0.29857 -5.7661,-1.6346 -0.06697,-0.05042 -0.13288,-0.10272 -0.1976,-0.15686 -0.67264,-0.56264 -1.1913,-1.3016 -1.4715,-2.149 -0.33858,-1.1285 -0.2397,-2.2485 0.05435,-3.1903 1.7855,-6.1962 2.6638,-10.894 3.0744,-10.828 0.41062,0.06553 0.23608,4.8567 -1.3642,11.296 -0.1739,0.73192 -0.24731,1.5157 -0.01241,2.1531 0.14999,0.47692 0.48548,0.92577 0.91864,1.2951 0.04168,0.03554 0.0841,0.07021 0.12716,0.10395 1.2444,1.0015 3.0817,1.2667 4.6845,1.3737 2.1944,0.10453 4.0279,-0.20376 5.5313,-0.72573 l 10e-7,-10e-7 c 0.88065,-0.31054 1.5036,-0.62579 2.018,-1.0153 0.91068,-0.69941 1.1242,-1.4119 1.2853,-1.3877 z"
                 id="path42" /></g><g
               transform="translate(-0.33446,0.20222)"
               id="g54"><g
                 id="g52"><path
                   d="m 41.326,34.367 c -6.9e-4,0.0268 0.60493,-0.0933 1.0791,0.41098 0.25426,0.24757 0.24127,0.68998 0.05241,1.1659 -0.15498,0.33363 -0.51554,0.62931 -0.92086,0.6265 -0.04466,-3.09e-4 -0.08923,-0.0044 -0.13342,-0.01234 -0.42904,-0.06604 -0.7919,-0.34009 -0.96111,-0.67231 -0.10998,-0.43527 0.17227,-0.84437 0.43165,-1.0843 0.47501,-0.43425 0.88643,-0.52216 0.8817,-0.54664 -0.0044,-0.0226 -0.42993,-4.59e-4 -0.96647,0.44979 -0.29534,0.24564 -0.61565,0.69369 -0.50843,1.2383 1e-6,0 0,0 0,0 0.19231,0.39309 0.60492,0.71718 1.0929,0.79923 0.05461,0.008 0.10931,0.0116 0.16378,0.01104 0.49498,-0.0052 0.90599,-0.34486 1.0816,-0.73965 0.21628,-0.51203 0.18496,-1.0306 -0.11825,-1.3324 -0.58705,-0.54172 -1.1739,-0.34089 -1.1746,-0.31409 z"
                   id="path46" /><path
                   d="m 44.399,34.58 c 0.0063,0.02801 0.75292,-0.32884 1.3849,0.22956 0.3232,0.25785 0.32248,0.77845 0.13632,1.3332 -0.1358,0.30181 -0.43386,0.55455 -0.78425,0.61965 -0.10939,0.02033 -0.2203,0.0213 -0.32836,8.29e-4 -0.42468,-0.07941 -0.80052,-0.33299 -0.89863,-0.67574 -0.14524,-0.45309 0.1369,-0.90975 0.39422,-1.1431 0.51829,-0.45908 0.9846,-0.48484 0.98419,-0.50972 -3.6e-4,-0.02182 -0.46772,-0.08505 -1.0677,0.41214 -0.29756,0.2416 -0.62278,0.73339 -0.47524,1.2889 0.12757,0.4226 0.54789,0.73174 1.0312,0.81074 0.13159,0.02133 0.26474,0.01865 0.3948,-0.0061 0.41677,-0.07933 0.75767,-0.37287 0.91639,-0.73113 0.21749,-0.59114 0.16834,-1.1914 -0.21228,-1.5103 -0.77541,-0.5949 -1.4819,-0.1469 -1.4756,-0.1189 z"
                   id="path48" /><path
                   d="m 42.432,34.724 c 0.01626,0.04291 0.50038,-0.13997 1.0483,-0.17549 0.54795,-0.03552 0.87631,0.26576 0.90954,0.23413 0.03323,-0.03164 -0.32059,-0.42096 -0.91803,-0.3967 -0.59744,0.02425 -1.0561,0.29516 -1.0398,0.33807 z"
                   id="path50" /></g></g></g></g></g></g><g
       id="g3052"
       transform="translate(0,0.69603403)"><g
         id="g3034"
         transform="translate(3.0461041e-5,-2.0749542)"><g
           id="g230"
           transform="matrix(0.01322891,0,0,0.01322891,4.1042244,9.5640171)"><path
             style="fill:#ffffff"
             d="M 395.9,484.2 269,423.2 c -12.5,-6 -17.9,-21.2 -11.8,-33.8 l 61,-126.9 c 6,-12.5 21.2,-17.9 33.8,-11.8 17.2,8.3 27.1,13 27.1,13 l -0.1,-109.2 16.7,-0.1 0.1,117.1 c 0,0 57.4,24.2 83.1,40.1 3.7,2.3 10.2,6.8 12.9,14.4 2.1,6.1 2,13.1 -1,19.3 l -61,126.9 c -6.2,12.7 -21.4,18.1 -33.9,12 z"
             id="path215" /><path
             style="fill:#609926"
             d="m 622.7,149.8 c -4.1,-4.1 -9.6,-4 -9.6,-4 0,0 -117.2,6.6 -177.9,8 -13.3,0.3 -26.5,0.6 -39.6,0.7 v 117.2 c -5.5,-2.6 -11.1,-5.3 -16.6,-7.9 0,-36.4 -0.1,-109.2 -0.1,-109.2 -29,0.4 -89.2,-2.2 -89.2,-2.2 0,0 -141.4,-7.1 -156.8,-8.5 -9.8,-0.6 -22.5,-2.1 -39,1.5 -8.7,1.8 -33.5,7.4 -53.8,26.9 -45,40.1 -33.5,103.9 -32.1,113.5 1.7,11.7 6.9,44.2 31.7,72.5 45.8,56.1 144.4,54.8 144.4,54.8 0,0 12.1,28.9 30.6,55.5 25,33.1 50.7,58.9 75.7,62 63,0 188.9,-0.1 188.9,-0.1 0,0 12,0.1 28.3,-10.3 14,-8.5 26.5,-23.4 26.5,-23.4 0,0 12.9,-13.8 30.9,-45.3 5.5,-9.7 10.1,-19.1 14.1,-28 0,0 55.2,-117.1 55.2,-231.1 -1.1,-34.5 -9.6,-40.6 -11.6,-42.6 z M 125.6,353.9 c -25.9,-8.5 -36.9,-18.7 -36.9,-18.7 0,0 -19.1,-13.4 -28.7,-39.8 -16.5,-44.2 -1.4,-71.2 -1.4,-71.2 0,0 8.4,-22.5 38.5,-30 13.8,-3.7 31,-3.1 31,-3.1 0,0 7.1,59.4 15.7,94.2 7.2,29.2 24.8,77.7 24.8,77.7 0,0 -26.1,-3.1 -43,-9.1 z m 300.3,107.6 c 0,0 -6.1,14.5 -19.6,15.4 -5.8,0.4 -10.3,-1.2 -10.3,-1.2 0,0 -0.3,-0.1 -5.3,-2.1 l -112.9,-55 c 0,0 -10.9,-5.7 -12.8,-15.6 -2.2,-8.1 2.7,-18.1 2.7,-18.1 L 322,273 c 0,0 4.8,-9.7 12.2,-13 0.6,-0.3 2.3,-1 4.5,-1.5 8.1,-2.1 18,2.8 18,2.8 L 467.4,315 c 0,0 12.6,5.7 15.3,16.2 1.9,7.4 -0.5,14 -1.8,17.2 -6.3,15.4 -55,113.1 -55,113.1 z"
             id="path217" /><path
             style="fill:#609926"
             d="m 326.8,380.1 c -8.2,0.1 -15.4,5.8 -17.3,13.8 -1.9,8 2,16.3 9.1,20 7.7,4 17.5,1.8 22.7,-5.4 5.1,-7.1 4.3,-16.9 -1.8,-23.1 l 24,-49.1 c 1.5,0.1 3.7,0.2 6.2,-0.5 4.1,-0.9 7.1,-3.6 7.1,-3.6 4.2,1.8 8.6,3.8 13.2,6.1 4.8,2.4 9.3,4.9 13.4,7.3 0.9,0.5 1.8,1.1 2.8,1.9 1.6,1.3 3.4,3.1 4.7,5.5 1.9,5.5 -1.9,14.9 -1.9,14.9 -2.3,7.6 -18.4,40.6 -18.4,40.6 -8.1,-0.2 -15.3,5 -17.7,12.5 -2.6,8.1 1.1,17.3 8.9,21.3 7.8,4 17.4,1.7 22.5,-5.3 5,-6.8 4.6,-16.3 -1.1,-22.6 1.9,-3.7 3.7,-7.4 5.6,-11.3 5,-10.4 13.5,-30.4 13.5,-30.4 0.9,-1.7 5.7,-10.3 2.7,-21.3 -2.5,-11.4 -12.6,-16.7 -12.6,-16.7 -12.2,-7.9 -29.2,-15.2 -29.2,-15.2 0,0 0,-4.1 -1.1,-7.1 -1.1,-3.1 -2.8,-5.1 -3.9,-6.3 4.7,-9.7 9.4,-19.3 14.1,-29 -4.1,-2 -8.1,-4 -12.2,-6.1 -4.8,9.8 -9.7,19.7 -14.5,29.5 -6.7,-0.1 -12.9,3.5 -16.1,9.4 -3.4,6.3 -2.7,14.1 1.9,19.8 z"
             id="path219" /></g><path
           style="fill:none;stroke:#000000;stroke-width:0.132289"
           id="path615"
           d="m 1.4379054,10.360331 c 0.1645396,-0.03233 0.5024638,0.08963 0.6108523,0.126984 0.4516744,0.155658 0.7425419,0.288469 1.1701944,0.524423 0.212199,0.117078 0.4152634,0.249999 0.6228951,0.374999 0.5204582,0.357394 0.5547445,0.363856 1.0185441,0.742637 0.1270604,0.103769 0.255062,0.206998 0.3732834,0.320734 0.1366138,0.131432 0.3598496,0.368219 0.4071847,0.571688 0.0247,0.106172 -0.00405,0.217976 -0.00608,0.326964 -0.045963,0.114447 -0.070491,0.240054 -0.1378891,0.343342 -0.079973,0.12256 -0.1934162,0.219956 -0.29708,0.323255 -0.1127022,0.112304 -0.2208464,0.2321 -0.351442,0.322978 -0.2831444,0.197034 -0.7262212,0.371203 -1.0523023,0.462847 -0.2022148,0.05683 -0.4109688,0.08711 -0.6164532,0.130658 -0.7500518,0.109406 -1.5232176,0.129462 -2.26374513,-0.0544 -0.069527,-0.01726 -0.1373869,-0.04066 -0.2060804,-0.06098 -0.1753373,-0.07066 -0.097297,-0.0334 -0.2362347,-0.10723 0,0 0.00412,0.0033 0.00412,0.0033 v 0 c 0.138989,0.07376 0.060925,0.03654 0.2363003,0.107147 0.068702,0.02032 0.1365707,0.0437 0.206105,0.06095 0.74059323,0.183764 1.51378523,0.163694 2.26387563,0.05422 0.2054978,-0.04357 0.4142665,-0.07386 0.6164933,-0.130716 0.3940581,-0.110783 0.7061777,-0.248181 1.0524006,-0.462998 0.1410927,-0.08754 0.2860269,-0.174703 0.4036369,-0.291915 0.2200937,-0.219349 0.273146,-0.424567 0.3830011,-0.698061 0.00206,-0.109067 0.030869,-0.220942 0.00619,-0.327201 C 5.5976719,12.817223 5.3761319,12.58744 5.2385769,12.452101 4.8211122,12.04136 4.3284394,11.716721 3.8467839,11.388642 3.6361294,11.261905 3.4300606,11.127214 3.2148204,11.008431 2.7877069,10.772725 2.4957978,10.63953 2.0445657,10.484086 1.9359428,10.446666 1.5981631,10.324743 1.4335082,10.357387 c 0,0 0.0044,0.0029 0.0044,0.0029 z" /><path
           style="fill:none;stroke:#000000;stroke-width:0.132289"
           id="path621"
           d="m 15.248518,11.77512 c -0.806674,0.192202 -1.610826,0.4056 -2.392518,0.68429 -0.168705,0.06015 -0.33486,0.127219 -0.50229,0.190828 -0.261239,0.142967 -0.552788,0.224201 -0.815165,0.364846 -0.240081,0.128694 -0.523488,0.347654 -0.705317,0.554597 -0.04815,0.0548 -0.08689,0.117192 -0.130341,0.175788 -0.02959,0.06067 -0.07548,0.115825 -0.08877,0.182001 -0.08169,0.406596 0.234766,0.74524 0.507385,0.990694 0.369158,0.332375 0.63479,0.468336 1.05696,0.727449 0.990502,0.516058 2.064153,0.862759 3.166631,1.039333 0.183056,0.02932 0.367768,0.04714 0.551653,0.07071 0,0 -0.0042,-0.0032 -0.0042,-0.0032 v 0 c -0.183878,-0.02358 -0.368585,-0.04141 -0.551634,-0.07074 -1.099046,-0.176032 -2.169328,-0.52138 -3.157514,-1.034193 -0.42782,-0.262526 -0.654832,-0.370087 -1.017695,-0.710789 -0.266563,-0.250284 -0.533074,-0.555335 -0.447811,-0.950441 0.01411,-0.0654 0.05636,-0.121361 0.08454,-0.182041 0.0411,-0.05935 0.07768,-0.122097 0.123294,-0.178048 0.188342,-0.231017 0.427781,-0.407329 0.673845,-0.57121 0.107873,-0.07185 0.213318,-0.148375 0.32785,-0.209043 0.138989,-0.07362 0.287123,-0.128506 0.430685,-0.192759 0.167426,-0.0636 0.333578,-0.13067 0.502279,-0.190811 0.781678,-0.278667 1.585811,-0.492069 2.392475,-0.684229 0,0 -0.0043,-0.003 -0.0043,-0.003 z" /></g><path
         style="fill:#ffffff;fill-opacity:0.505922;fill-rule:nonzero;stroke:#d8d8d8;stroke-width:0.132289;stroke-opacity:1"
         d="M 9.8389176,9.6220755 C 9.8794603,9.481851 9.9051553,9.3357641 9.9729135,9.20483 10.044332,9.0668228 10.122278,8.9318048 10.211141,8.804369 c 0.108974,-0.1562762 0.227448,-0.3053674 0.342612,-0.4575209 0.09426,-0.1245354 0.223198,-0.2169616 0.318763,-0.3405894 0.0788,-0.1019422 0.16869,-0.1945808 0.254061,-0.2909141 0.04749,-0.053591 0.0999,-0.1030464 0.143968,-0.1594504 0.07487,-0.095822 0.156787,-0.1859786 0.231199,-0.2821158 0.03563,-0.046035 0.08432,-0.094262 0.08376,-0.1532799 -3.71e-4,-0.039774 0.02897,-0.069232 0.04034,-0.105418 0.01557,-0.049532 0.0062,-0.1021821 0.0097,-0.1543355 0.005,-0.075267 0.01682,-0.1566351 -0.01963,-0.2262783 -0.04197,-0.080189 -0.123585,-0.1267377 -0.190051,-0.1843962 -0.03665,-0.031793 -0.08625,-0.028037 -0.131274,-0.029533 -0.296058,-0.00984 -0.592067,0.00608 -0.887746,0.018776 -0.08337,0.00358 -0.16719,0.00274 -0.250046,0.012894 -0.02652,0.00325 0.01459,0.00563 0.02143,0.00593 0.03809,0.00169 0.147793,0.00243 0.121908,0.00234 -0.124438,-4.448e-4 -0.248865,7e-5 -0.3733002,0.00196 C 9.7402268,6.4652848 9.5564635,6.3777721 9.4355414,6.2354455 9.3770793,6.166635 9.3389466,6.0839827 9.3049131,6.0008666 9.2611427,5.8939713 9.2206721,5.7847006 9.2034093,5.6697072 9.1811546,5.521461 9.1780926,5.3713522 9.1713158,5.2217948 9.1668766,5.1238263 9.1702007,5.0255225 9.1843299,4.9283466 9.2276205,4.6306093 9.334356,4.3452058 9.471449,4.078587 9.5625719,3.9013709 9.6702877,3.7332178 9.7862642,3.5712175 9.9693395,3.3154911 10.141776,3.0516907 10.337068,2.8051656 c 0.08805,-0.1111443 0.193128,-0.2069927 0.293774,-0.306333 0.280463,-0.2768234 0.565546,-0.5489107 0.853508,-0.8179334 0.252197,-0.2356097 0.508899,-0.4663611 0.770048,-0.69203847 0.219401,-0.18960016 0.45096,-0.36604514 0.657795,-0.56928266 0.0079,-0.007749 0.0325,-0.0265888 0.01361,-0.006749 -0.04463,0.0468761 -0.08213,0.10110279 -0.132217,0.14235905 -0.01042,0.008582 -0.0069,0.0213732 0.0079,0.0139834 0.06115,-0.0305714 0.116438,-0.0715412 0.171502,-0.1116964 0.07371,-0.0537499 0.150568,-0.10452562 0.213778,-0.17085809 0.03462,-0.0363313 0.07379,-0.0688652 0.10388,-0.10914648 0.0111,-0.014865 0.01983,-0.0315973 0.03278,-0.0450215 0,0 0.0054,0.005119 0.0054,0.005119"
         id="path1487"
         inkscape:path-effect="#path-effect1489"
         inkscape:original-d="m 9.8389176,9.6220755 c 0.032351,-0.1122584 0.054573,-0.2279457 0.097054,-0.3367754 0.046533,-0.1192105 0.2077264,-0.3846688 0.2824194,-0.4913922 0.105642,-0.1509421 0.209297,-0.3044152 0.331675,-0.4421363 0.07826,-0.1054203 0.182731,-0.1859471 0.270178,-0.2825652 0.03905,-0.043149 0.07248,-0.091119 0.110607,-0.1350891 0.06838,-0.078856 0.138993,-0.1557423 0.208828,-0.2333092 0.229085,-0.2544501 0.01591,-0.0089 0.282419,-0.3316751 0.0586,-0.070966 0.129834,-0.14345 0.159717,-0.233455 0.0066,-0.019791 0.0051,-0.041753 0.01224,-0.061351 0.0094,-0.025828 0.0302,-0.047078 0.03687,-0.073738 0.006,-0.023846 -0.0015,-0.049202 0,-0.073738 0.01282,-0.2161484 0.04682,-0.2900163 -0.159571,-0.4421363 -0.03394,-0.025013 -0.0685,-0.059193 -0.110607,-0.061351 -0.282176,-0.014462 -0.56516,0.00286 -0.84755,0.012242 -0.9116404,0.030284 0.24971,0.024481 -0.442136,0.024481 -0.143959,0 -0.2045181,0.013605 -0.3316754,-0.024481 C 9.5423708,6.3765944 9.3982096,6.2338849 9.3217327,6.0425793 9.2861451,5.9535575 9.247799,5.8649998 9.2235126,5.7722553 9.1930652,5.6559833 9.1773548,5.4423267 9.1744027,5.3178781 c -0.00243,-0.1023689 -0.00998,-0.205283 0,-0.3071932 C 9.2201683,4.543354 9.4517147,4.055091 9.714759,3.6718892 9.7456583,3.6268755 10.313246,2.8347125 10.34124,2.799712 c 0.06692,-0.083667 0.144821,-0.1580461 0.221068,-0.2333092 0.243534,-0.2403887 0.4885,-0.4794063 0.738109,-0.7134804 0.270255,-0.253435 0.541528,-0.5060246 0.821318,-0.7488921 1.707962,-1.48257095 0.04345,-0.044698 0.964277,-0.72936461 0.06741,-0.0501187 0.124701,-0.11266747 0.184199,-0.1719581 0.02665,-0.0265603 0.05858,-0.0925456 0.05858,-0.0651401" /><path
         style="fill:#ffffff;fill-opacity:0.505922;fill-rule:nonzero;stroke:#d8d8d8;stroke-width:0.132289;stroke-opacity:1"
         d="M 7.9425695,9.4745996 C 8.1279061,9.1386448 8.3434993,8.8179996 8.4970332,8.4657155 8.5644317,8.3110694 8.6186068,8.1494918 8.6450452,7.9835421 8.6584113,7.8996453 8.6576837,7.8140553 8.6690061,7.729851 8.6747575,7.6870779 8.6451172,7.6539973 8.6268908,7.6185061 8.6102864,7.5861732 8.5971306,7.5520744 8.5788232,7.5206932 8.5533002,7.4769436 8.5079617,7.448577 8.4642939,7.4258134 8.3361183,7.3589967 8.1875171,7.3532047 8.0453971,7.3550986 7.9763077,7.3560193 7.9126825,7.385281 7.846614,7.4018434 7.7678186,7.4215963 7.6903792,7.4462929 7.6118345,7.4669463 7.5523488,7.4825881 7.4860624,7.4899724 7.4282587,7.4603241 7.3548571,7.4226755 7.2878805,7.3654163 7.2564818,7.2871125 7.2194002,7.1946365 7.2184694,7.0932285 7.2167209,6.9952179 7.2149583,6.8964143 7.2075248,6.7978739 7.2021723,6.6992276 7.192673,6.5241572 7.2017242,6.3474624 7.2403192,6.1757028 7.3313,5.7708103 7.4384917,5.3665404 7.6080681,4.9872625 7.7040557,4.7725748 7.8452639,4.5818607 7.9954923,4.4024039 8.2006866,4.1572871 8.4256987,3.9300291 8.640204,3.6932101 8.7620025,3.5587416 8.87851,3.4194326 9.0033763,3.2878101 9.1250591,3.1595434 9.2513763,3.0357772 9.3757347,2.9101222 9.5747564,2.7090255 9.773424,2.5075768 9.9746513,2.3086737 10.225352,2.0608686 10.475507,1.8121925 10.71157,1.5502582 c 0.104384,-0.1158238 0.225245,-0.2204394 0.305845,-0.3540625 0.01544,-0.025594 0.06518,-0.059672 0.0426,-0.081909 -0.02005,-0.019749 0.01469,-0.042813 0.02834,-0.056731 0.128569,-0.13103289 0.261257,-0.2580455 0.39669,-0.38191418 0.08934,-0.0817096 0.172749,-0.17045692 0.27031,-0.24272831 0.04961,-0.0367473 0.09513,-0.0792828 0.146622,-0.11314844 0.06945,-0.0456739 0.08873,-0.15070799 0.165105,-0.17986792 0.02944,-0.0112392 0.06597,0.0130975 0.0937,-0.006266"
         id="path1491"
         inkscape:path-effect="#path-effect1493"
         inkscape:original-d="M 7.9425695,9.4745996 C 8.122834,9.1483163 8.3241052,8.8327855 8.4833633,8.49575 8.5586058,8.3365147 8.5954393,8.1616683 8.6430801,7.9921168 8.6528298,7.9574206 8.6751604,7.7385616 8.667416,7.6999337 8.6638177,7.6819768 8.6509936,7.6671956 8.642789,7.6508238 8.6304941,7.6262947 8.6189347,7.6013855 8.6059201,7.5772313 8.590265,7.5481754 8.580936,7.5137752 8.5568099,7.4912525 8.4186432,7.3622677 8.2057732,7.3453241 8.0286945,7.3560176 c -0.050579,0.00305 -0.098426,0.024153 -0.1474759,0.036869 -0.061511,0.015946 -0.1231021,0.031644 -0.1841992,0.04911 -0.073835,0.021108 -0.1804333,0.062651 -0.2564797,0.024627 C 7.173456,7.3330816 7.2342844,7.1459478 7.2072302,6.7787909 7.1933769,6.5907939 7.1913397,6.3979077 7.2318572,6.2138066 7.3213309,5.8072701 7.4358051,5.4036432 7.5945721,5.0188437 7.7799884,4.5694554 8.2473188,4.1293347 8.5533114,3.7897805 9.2219802,3.0477706 8.7693357,3.5256569 9.6474313,2.6353296 9.9658357,2.3124898 10.295438,2.0003804 10.603547,1.667701 11.607269,0.58393865 10.455121,1.645118 11.649432,0.52068223 c 0.07637,-0.0718991 0.166061,-0.1283233 0.245695,-0.19658599 0.07432,-0.045029 0.109336,-0.1282184 0.171959,-0.18419919 0.01259,-0.0112534 0.07512,0.0123147 0.0937,-0.006266" /></g></g></svg>
