<?xml version="1.0" encoding="UTF-8" standalone="no"?>
<!-- Created with Inkscape (http://www.inkscape.org/) -->

<svg
   width="1172.41"
   height="886.45087"
   viewBox="0 0 1172.41 886.45084"
   id="svg2"
   version="1.1"
   inkscape:version="1.2.2 (b0a8486541, 2022-12-01)"
   sodipodi:docname="nix-snowflake-with-fds.svg"
   xml:space="preserve"
   xmlns:inkscape="http://www.inkscape.org/namespaces/inkscape"
   xmlns:sodipodi="http://sodipodi.sourceforge.net/DTD/sodipodi-0.dtd"
   xmlns="http://www.w3.org/2000/svg"
   xmlns:svg="http://www.w3.org/2000/svg"><defs
     id="defs4"><inkscape:path-effect
       effect="skeletal"
       id="path-effect3583"
       is_visible="true"
       lpeversion="1"
       pattern="M 0,4.9920401 C 0,2.236434 2.236434,0 4.9920401,0 c 2.7556061,0 4.9920401,2.236434 4.9920401,4.9920401 0,2.7556061 -2.236434,4.9920401 -4.9920401,4.9920401 C 2.236434,9.9840802 0,7.7476462 0,4.9920401 Z"
       copytype="single_stretched"
       prop_scale="0.16377935"
       scale_y_rel="false"
       spacing="0"
       normal_offset="0"
       tang_offset="0"
       prop_units="false"
       vertical_pattern="false"
       hide_knot="false"
       fuse_tolerance="0" /></defs><sodipodi:namedview
     id="base"
     pagecolor="#ffffff"
     bordercolor="#666666"
     borderopacity="1.0"
     inkscape:pageopacity="0.0"
     inkscape:pageshadow="2"
     inkscape:zoom="0.18233797"
     inkscape:cx="811.67952"
     inkscape:cy="1914.0281"
     inkscape:document-units="px"
     inkscape:current-layer="layer1"
     showgrid="false"
     inkscape:window-width="1366"
     inkscape:window-height="699"
     inkscape:window-x="0"
     inkscape:window-y="0"
     inkscape:window-maximized="1"
     inkscape:snap-global="true"
     fit-margin-top="0"
     fit-margin-left="0"
     fit-margin-right="0"
     fit-margin-bottom="0"
     inkscape:showpageshadow="2"
     inkscape:pagecheckerboard="0"
     inkscape:deskcolor="#d1d1d1"
     showguides="true" /><g
     inkscape:label="print-logo"
     inkscape:groupmode="layer"
     id="layer1"
     style="display:inline"
     transform="translate(10.935323,1373.6263)"><rect
       style="fill:#ffffff;stroke:#b3a900;stroke-width:0.9375"
       id="rect3145"
       width="1807.6871"
       height="1258.7412"
       x="-377.48236"
       y="-1562.1471" /><g
       id="g3100"
       transform="translate(33.812831,27.701572)"><path
         style="color:#000000;clip-rule:nonzero;display:inline;overflow:visible;visibility:visible;opacity:1;isolation:auto;mix-blend-mode:normal;color-interpolation:sRGB;color-interpolation-filters:linearRGB;solid-color:#000000;solid-opacity:1;fill:#7ebae4;fill-opacity:1;fill-rule:evenodd;stroke:none;stroke-width:3;stroke-linecap:butt;stroke-linejoin:round;stroke-miterlimit:4;stroke-dasharray:none;stroke-dashoffset:0;stroke-opacity:1;color-rendering:auto;image-rendering:auto;shape-rendering:auto;text-rendering:auto;enable-background:accumulate"
         d="m 363.1709,-782.52351 -122.21756,-211.66315 -28.53477,48.37005 32.93839,56.6875 -65.41521,0.1719 -13.9414,24.1698 14.23637,24.721 93.11177,-0.2939 33.46371,57.6903 z"
         id="use4863"
         inkscape:connector-curvature="0"
         sodipodi:nodetypes="cccccccccc" /><path
         style="color:#000000;clip-rule:nonzero;display:inline;overflow:visible;visibility:visible;opacity:1;isolation:auto;mix-blend-mode:normal;color-interpolation:sRGB;color-interpolation-filters:linearRGB;solid-color:#000000;solid-opacity:1;fill:#7ebae4;fill-opacity:1;fill-rule:evenodd;stroke:none;stroke-width:3;stroke-linecap:butt;stroke-linejoin:round;stroke-miterlimit:4;stroke-dasharray:none;stroke-dashoffset:0;stroke-opacity:1;color-rendering:auto;image-rendering:auto;shape-rendering:auto;text-rendering:auto;enable-background:accumulate"
         d="m 38.952782,-1373.6263 112.697058,216.8819 -56.125213,-1.9621 -30.071611,-58.259 -35.330622,55.0538 -27.8744754,-1.2478 -13.1832416,-25.2982 50.331127,-78.3369 -30.6344134,-59.2413 z"
         id="use4865"
         inkscape:connector-curvature="0"
         sodipodi:nodetypes="cccccccccc" /><path
         sodipodi:nodetypes="cccccccccc"
         inkscape:connector-curvature="0"
         id="use4875"
         d="m 212.48761,-945.67043 -117.890364,-214.10327 56.156214,0.6092 31.4667,57.5173 33.99387,-55.8891 27.89643,0.5757 13.78901,24.9733 -48.42897,79.5269 32.05309,58.48578 z"
         style="color:#000000;clip-rule:nonzero;display:inline;overflow:visible;visibility:visible;opacity:1;isolation:auto;mix-blend-mode:normal;color-interpolation:sRGB;color-interpolation-filters:linearRGB;solid-color:#000000;solid-opacity:1;fill:#5277c3;fill-opacity:1;fill-rule:evenodd;stroke:none;stroke-width:3;stroke-linecap:butt;stroke-linejoin:round;stroke-miterlimit:4;stroke-dasharray:none;stroke-dashoffset:0;stroke-opacity:1;color-rendering:auto;image-rendering:auto;shape-rendering:auto;text-rendering:auto;enable-background:accumulate" /></g><g
       id="g3095"
       transform="translate(38.066695,15.877185)"><path
         style="color:#000000;clip-rule:nonzero;display:inline;overflow:visible;visibility:visible;opacity:1;isolation:auto;mix-blend-mode:normal;color-interpolation:sRGB;color-interpolation-filters:linearRGB;solid-color:#000000;solid-opacity:1;fill:#7ebae4;fill-opacity:1;fill-rule:evenodd;stroke:none;stroke-width:3;stroke-linecap:butt;stroke-linejoin:round;stroke-miterlimit:4;stroke-dasharray:none;stroke-dashoffset:0;stroke-opacity:1;color-rendering:auto;image-rendering:auto;shape-rendering:auto;text-rendering:auto;enable-background:accumulate"
         d="m 881.45881,-1010.2389 -212.13254,121.40108 48.25972,28.72094 56.81398,-32.71968 -0.0802,65.41539 24.11576,14.03469 24.77573,-14.14102 0.0649,-93.11226 57.8189,-33.24121 z"
         id="use4867"
         inkscape:connector-curvature="0"
         sodipodi:nodetypes="cccccccccc" /><path
         sodipodi:nodetypes="cccccccccc"
         inkscape:connector-curvature="0"
         id="path4873"
         d="m 1088.1991,-1082.7204 -207.52167,129.12458 -2.38216,-56.10888 55.76015,-34.4851 -57.62014,-30.9692 -0.91102,-27.8874 24.20388,-15.0991 81.99321,44.1254 56.69595,-35.1223 z"
         style="color:#000000;clip-rule:nonzero;display:inline;overflow:visible;visibility:visible;opacity:1;isolation:auto;mix-blend-mode:normal;color-interpolation:sRGB;color-interpolation-filters:linearRGB;solid-color:#000000;solid-opacity:1;fill:#5277c3;fill-opacity:1;fill-rule:evenodd;stroke:none;stroke-width:3;stroke-linecap:butt;stroke-linejoin:round;stroke-miterlimit:4;stroke-dasharray:none;stroke-dashoffset:0;stroke-opacity:1;color-rendering:auto;image-rendering:auto;shape-rendering:auto;text-rendering:auto;enable-background:accumulate" /><path
         sodipodi:nodetypes="cccccccccc"
         inkscape:connector-curvature="0"
         id="use4877"
         d="m 507.18756,-738.62153 211.66304,-122.21757 -48.37003,-28.53477 -56.68751,32.93839 -0.1718,-65.4152 -24.1698,-13.9414 -24.7211,14.23636 0.294,93.11177 -57.6904,33.46371 z"
         style="color:#000000;clip-rule:nonzero;display:inline;overflow:visible;visibility:visible;opacity:1;isolation:auto;mix-blend-mode:normal;color-interpolation:sRGB;color-interpolation-filters:linearRGB;solid-color:#000000;solid-opacity:1;fill:#5277c3;fill-opacity:1;fill-rule:evenodd;stroke:none;stroke-width:3;stroke-linecap:butt;stroke-linejoin:round;stroke-miterlimit:4;stroke-dasharray:none;stroke-dashoffset:0;stroke-opacity:1;color-rendering:auto;image-rendering:auto;shape-rendering:auto;text-rendering:auto;enable-background:accumulate" /></g><g
       id="g2097"
       transform="matrix(0.93750001,0,0,0.93750001,202.22301,-876.55891)"><g
         transform="translate(-10.292,-6.4467)"
         display="none"
         fill="#684338"
         id="g3522"><path
           transform="scale(0.26458)"
           d="m 336.37,57.961 c -32.337,-1.75e-4 -58.551,20.933 -58.551,46.756 -0.001,25.823 26.213,46.758 58.551,46.758 32.337,1.7e-4 58.552,-20.934 58.551,-46.758 0,-4.1532 -0.10627,-12.819 -2.0606,-12.295 -2.4325,0.45751 -4.9948,0.69114 -7.5781,0.69141 -12.38,4.5e-5 -22.416,-5.251 -22.416,-11.729 2e-5,-4.6854 7.0552,-4.274 13.555,-10.773 7.1439,-7.1439 -25.173,-12.65 -40.051,-12.65 z m -20.998,11.193 c 1.1119,-0.0012 2.2216,0.07178 3.3242,0.21875 16.626,2.2224 28.324,20.452 26.129,40.717 -2.1946,20.265 -17.452,34.892 -34.078,32.67 -16.626,-2.2223 -28.325,-20.453 -26.129,-40.719 2.0272,-18.707 15.276,-32.875 30.754,-32.887 z"
           style="paint-order:markers fill stroke"
           id="path3518" /><path
           transform="matrix(-0.55675,0.83068,-0.99938,0.035244,-24.308,-23.317)"
           d="m 72.49,-90.929 c -10e-7,2.3455 -3.838,7.9289 -7.8579,7.9289 -2.1718,0 -2.0217,-2.308 -3.1999,-4.1764 -1.0026,-1.5899 -3.4995,-2.6742 -3.4995,-3.7525 -10e-7,-2.3455 3.2588,-4.2469 7.2787,-4.2469 4.0199,0 7.2787,1.9014 7.2787,4.2469 z"
           stroke-width="0"
           style="paint-order:markers fill stroke"
           id="path3520" /></g><g
         transform="matrix(30.635491,0,0,30.635491,-1063.3624,-915.22487)"
         id="g3574"><g
           transform="translate(-3.8513e-6,1.6565)"
           id="g3572"><g
             transform="translate(0,-1.6565)"
             id="g3570"><g
               transform="matrix(0.1383,0,0,0.1383,29.742,29.695)"
               stroke-width="7.2309"
               id="g3558"><g
                 id="g3544"><g
                   id="g3538"><path
                     d="m 98.607,67.778 c -0.26842,2.2305 -5.9248,7.5019 -8.463,7.1965 -2.5383,-0.30546 -6.7778,-6.8435 -6.5094,-9.074 0.26842,-2.2305 5.5303,-3.5246 8.0686,-3.2191 2.5383,0.30546 7.1723,2.8662 6.9039,5.0966 z"
                     id="path3524" /><circle
                     transform="rotate(6.8621)"
                     cx="103.62"
                     cy="69.821999"
                     r="0.94344002"
                     style="paint-order:markers fill stroke"
                     id="circle3526" /><circle
                     transform="rotate(6.8621)"
                     cx="110.97"
                     cy="59.455002"
                     r="0.94344002"
                     style="paint-order:markers fill stroke"
                     id="circle3528" /><circle
                     transform="rotate(6.8621)"
                     cx="113.42"
                     cy="68.699997"
                     r="0.94344002"
                     style="paint-order:markers fill stroke"
                     id="circle3530" /><circle
                     transform="rotate(6.8621)"
                     cx="91.964996"
                     cy="65.737"
                     r="0.92624003"
                     style="paint-order:markers fill stroke"
                     id="circle3532" /><circle
                     transform="rotate(6.8621)"
                     cx="84.413002"
                     cy="60.097"
                     r="0.92624003"
                     style="paint-order:markers fill stroke"
                     id="circle3534" /><circle
                     transform="rotate(6.8621)"
                     cx="84.928001"
                     cy="70.742996"
                     r="0.92624003"
                     style="paint-order:markers fill stroke"
                     id="circle3536" /></g><path
                   d="m 60.365,31.119 c -0.03353,-0.18871 -4.0209,0.3521 -8.9525,4.0802 -2.7671,2.0761 -5.7527,4.8735 -8.689,8.6062 -2.1657,2.7446 -4.4069,6.085 -5.805,9.9376 -0.51822,1.421 -0.92313,2.9754 -0.98675,4.6071 -0.05788,1.3041 0.16508,2.7045 0.86713,3.9512 0.08233,0.13964 0.16907,0.27609 0.26,0.40928 1.3075,1.915 3.4238,3.0786 5.5762,3.4021 3.0368,0.4471 6.0017,-0.41501 8.4104,-1.6703 7.1912,-3.7482 11.054,-10.607 12.97,-14.898 2.0407,-4.5707 2.6074,-7.4379 2.4466,-7.4895 -0.16078,-0.05158 -1.0465,2.7166 -3.2786,7.0922 -2.09,4.0968 -6.0275,10.66 -12.802,13.984 -2.2539,1.1057 -4.9315,1.8832 -7.5071,1.4525 -1.7657,-0.28928 -3.5272,-1.2414 -4.5244,-2.7435 -0.0694,-0.10453 -0.13488,-0.21145 -0.19624,-0.32068 -0.53116,-0.88927 -0.68979,-2.0128 -0.66576,-3.1161 0.03961,-1.4026 0.4057,-2.8061 0.87288,-4.1451 1.2743,-3.6327 3.3983,-6.8833 5.4525,-9.6122 2.7964,-3.7031 5.6057,-6.506 8.2207,-8.6545 4.71,-3.8396 8.3644,-4.6834 8.3309,-4.8722 z"
                   id="path3540" /><path
                   d="m 136.01,36.031 c -0.1321,0.135 2.7179,3.0095 6.8918,8.2491 v 2e-6 c 2.2607,2.839 5.1336,6.6628 7.6263,11.028 1.8862,3.3156 3.8371,7.283 4.4858,11.524 0.25913,1.6917 0.31013,3.4598 -0.0478,5.1516 -0.2937,1.4062 -0.88404,2.7753 -1.7454,3.9669 -0.10994,0.15209 -0.22394,0.3008 -0.34187,0.44588 -1.0536,1.304 -2.2777,2.4142 -3.6887,3.0693 -1.2045,0.56858 -2.553,0.7928 -3.8364,0.66436 -3.0933,-0.26683 -5.8103,-2.4151 -7.8492,-4.5662 -3.0914,-3.3095 -5.0532,-7.2698 -6.3213,-10.627 v -2e-6 c -3.0997,-8.2309 -2.631,-14.007 -2.8523,-14.012 -0.22133,-0.0054 -1.1266,5.8309 1.7909,14.393 v 2e-6 c 1.1868,3.4942 3.1251,7.6387 6.338,11.204 2.0905,2.3523 5.0662,4.6976 8.7372,5.1282 1.5608,0.16473 3.1835,-0.09477 4.6517,-0.7782 1.6846,-0.79494 3.0992,-2.0472 4.2478,-3.4936 0.13627,-0.16806 0.26788,-0.34007 0.3947,-0.51578 0.9937,-1.3769 1.6675,-2.9458 1.9992,-4.5636 0.39163,-1.9322 0.33334,-3.8834 0.0322,-5.7074 -0.75126,-4.5437 -2.8142,-8.634 -4.813,-11.973 -2.6392,-4.4256 -5.6396,-8.1944 -8.0426,-10.973 v -2e-6 c -4.4172,-5.1101 -7.5252,-7.7487 -7.6573,-7.6137 z"
                   id="path3542" /></g><g
                 stroke-width="7.2309"
                 id="g3548"><g
                   transform="rotate(5.1295,120.58,22.083)"
                   stroke-width="7.2309"
                   id="g3546" /></g><g
                 transform="matrix(-1,0,0,1,191.62,0)"
                 stroke-width="7.2309"
                 id="g3552"><g
                   transform="rotate(5.1295,120.58,22.083)"
                   stroke-width="7.2309"
                   id="g3550" /></g><path
                 transform="translate(-1.2292e-6)"
                 d="m 90.268,74.395 c -0.38912,-0.10426 -1.6812,4.4532 -3.8938,10.517 -0.22858,0.68081 -0.65824,1.3339 -1.2459,1.8045 -0.56552,0.46451 -1.3005,0.77805 -2.1103,0.98441 -0.0642,0.01625 -0.12872,0.03172 -0.19354,0.04641 -1.8576,0.42106 -3.8327,0.17383 -5.5421,-0.2673 -2.1609,-0.59441 -3.7475,-1.4013 -4.867,-2.5369 -0.5963,-0.60658 -0.96176,-1.1977 -1.1294,-1.7844 v -10e-7 c -0.39642,-1.2776 0.07999,-2.2227 -0.07706,-2.3046 -0.15705,-0.08186 -1.055,0.67576 -0.87358,2.4827 v 10e-7 c 0.0916,0.79364 0.43976,1.6645 1.102,2.4748 1.191,1.4652 3.0067,2.6288 5.3642,3.3365 1.8866,0.59575 4.1337,0.90666 6.4233,0.41135 0.07946,-0.01719 0.15872,-0.03531 0.23774,-0.05435 1.0242,-0.24561 2.0025,-0.69598 2.8279,-1.3756 0.86525,-0.72464 1.4552,-1.6768 1.747,-2.6753 2.0184,-6.3067 2.6196,-10.954 2.2304,-11.059 z"
                 id="path3554" /><path
                 transform="translate(24.308,23.317)"
                 d="m 79.149,64.172 c 0.06919,0.0104 0.37961,0.87512 -0.66821,2.0412 -0.50377,0.57002 -1.2053,1.0975 -2.14,1.5456 h -10e-7 c -1.5904,0.77145 -3.646,1.3002 -6.0737,1.2786 -1.7761,0.01516 -3.9538,-0.29857 -5.7661,-1.6346 -0.06697,-0.05042 -0.13288,-0.10272 -0.1976,-0.15686 -0.67264,-0.56264 -1.1913,-1.3016 -1.4715,-2.149 -0.33858,-1.1285 -0.2397,-2.2485 0.05435,-3.1903 1.7855,-6.1962 2.6638,-10.894 3.0744,-10.828 0.41062,0.06553 0.23608,4.8567 -1.3642,11.296 -0.1739,0.73192 -0.24731,1.5157 -0.01241,2.1531 0.14999,0.47692 0.48548,0.92577 0.91864,1.2951 0.04168,0.03554 0.0841,0.07021 0.12716,0.10395 1.2444,1.0015 3.0817,1.2667 4.6845,1.3737 2.1944,0.10453 4.0279,-0.20376 5.5313,-0.72573 l 10e-7,-10e-7 c 0.88065,-0.31054 1.5036,-0.62579 2.018,-1.0153 0.91068,-0.69941 1.1242,-1.4119 1.2853,-1.3877 z"
                 id="path3556" /></g><g
               transform="translate(-0.33446,0.20222)"
               id="g3568"><g
                 id="g3566"><path
                   d="m 41.326,34.367 c -6.9e-4,0.0268 0.60493,-0.0933 1.0791,0.41098 0.25426,0.24757 0.24127,0.68998 0.05241,1.1659 -0.15498,0.33363 -0.51554,0.62931 -0.92086,0.6265 -0.04466,-3.09e-4 -0.08923,-0.0044 -0.13342,-0.01234 -0.42904,-0.06604 -0.7919,-0.34009 -0.96111,-0.67231 -0.10998,-0.43527 0.17227,-0.84437 0.43165,-1.0843 0.47501,-0.43425 0.88643,-0.52216 0.8817,-0.54664 -0.0044,-0.0226 -0.42993,-4.59e-4 -0.96647,0.44979 -0.29534,0.24564 -0.61565,0.69369 -0.50843,1.2383 1e-6,0 0,0 0,0 0.19231,0.39309 0.60492,0.71718 1.0929,0.79923 0.05461,0.008 0.10931,0.0116 0.16378,0.01104 0.49498,-0.0052 0.90599,-0.34486 1.0816,-0.73965 0.21628,-0.51203 0.18496,-1.0306 -0.11825,-1.3324 -0.58705,-0.54172 -1.1739,-0.34089 -1.1746,-0.31409 z"
                   id="path3560" /><path
                   d="m 44.399,34.58 c 0.0063,0.02801 0.75292,-0.32884 1.3849,0.22956 0.3232,0.25785 0.32248,0.77845 0.13632,1.3332 -0.1358,0.30181 -0.43386,0.55455 -0.78425,0.61965 -0.10939,0.02033 -0.2203,0.0213 -0.32836,8.29e-4 -0.42468,-0.07941 -0.80052,-0.33299 -0.89863,-0.67574 -0.14524,-0.45309 0.1369,-0.90975 0.39422,-1.1431 0.51829,-0.45908 0.9846,-0.48484 0.98419,-0.50972 -3.6e-4,-0.02182 -0.46772,-0.08505 -1.0677,0.41214 -0.29756,0.2416 -0.62278,0.73339 -0.47524,1.2889 0.12757,0.4226 0.54789,0.73174 1.0312,0.81074 0.13159,0.02133 0.26474,0.01865 0.3948,-0.0061 0.41677,-0.07933 0.75767,-0.37287 0.91639,-0.73113 0.21749,-0.59114 0.16834,-1.1914 -0.21228,-1.5103 -0.77541,-0.5949 -1.4819,-0.1469 -1.4756,-0.1189 z"
                   id="path3562" /><path
                   d="m 42.432,34.724 c 0.01626,0.04291 0.50038,-0.13997 1.0483,-0.17549 0.54795,-0.03552 0.87631,0.26576 0.90954,0.23413 0.03323,-0.03164 -0.32059,-0.42096 -0.91803,-0.3967 -0.59744,0.02425 -1.0561,0.29516 -1.0398,0.33807 z"
                   id="path3564" /></g></g></g></g></g></g></g></svg>
